<mxfile host="app.diagrams.net" agent="Mozilla/5.0 (Windows NT 10.0; Win64; x64) AppleWebKit/537.36 (KHTML, like Gecko) Chrome/131.0.0.0 Safari/537.36 Edg/131.0.0.0" version="25.0.3">
  <diagram name="Page-1" id="iaIFJIXBgVTrJfoHt4K9">
    <mxGraphModel dx="2431" dy="1345" grid="1" gridSize="10" guides="1" tooltips="1" connect="1" arrows="1" fold="1" page="1" pageScale="1" pageWidth="1600" pageHeight="1200" math="0" shadow="0">
      <root>
        <mxCell id="0" />
        <mxCell id="1" parent="0" />
        <mxCell id="Asr2E2KB3ToAg5dMWEB5-1" value="&lt;font style=&quot;font-size: 26px;&quot;&gt;&lt;b&gt;INTERNET&lt;/b&gt;&lt;/font&gt;" style="image;aspect=fixed;perimeter=ellipsePerimeter;html=1;align=center;shadow=0;dashed=0;spacingTop=3;image=img/lib/active_directory/internet_cloud.svg;labelPosition=center;verticalLabelPosition=middle;verticalAlign=middle;" vertex="1" parent="1">
          <mxGeometry x="1200" y="100" width="293.33" height="184.8" as="geometry" />
        </mxCell>
        <mxCell id="Asr2E2KB3ToAg5dMWEB5-2" value="" style="rounded=0;whiteSpace=wrap;html=1;labelBorderColor=none;fontColor=none;noLabel=1;fillColor=none;" vertex="1" parent="1">
          <mxGeometry x="200" y="420" width="1040" height="720" as="geometry" />
        </mxCell>
        <mxCell id="Asr2E2KB3ToAg5dMWEB5-3" value="&lt;font style=&quot;line-height: 160%; font-size: 37px;&quot;&gt;&lt;b style=&quot;&quot;&gt;d&lt;span style=&quot;background-color: initial;&quot;&gt;.com.hr&lt;/span&gt;&lt;/b&gt;&lt;/font&gt;" style="text;html=1;align=center;verticalAlign=middle;whiteSpace=wrap;rounded=0;" vertex="1" parent="1">
          <mxGeometry x="200" y="360" width="160" height="75.2" as="geometry" />
        </mxCell>
        <mxCell id="Asr2E2KB3ToAg5dMWEB5-4" value="" style="image;aspect=fixed;perimeter=ellipsePerimeter;html=1;align=center;shadow=0;dashed=0;spacingTop=3;image=img/lib/active_directory/generic_server.svg;" vertex="1" parent="1">
          <mxGeometry x="338" y="445.2" width="84" height="150" as="geometry" />
        </mxCell>
        <mxCell id="Asr2E2KB3ToAg5dMWEB5-5" value="" style="image;aspect=fixed;perimeter=ellipsePerimeter;html=1;align=center;shadow=0;dashed=0;spacingTop=3;image=img/lib/active_directory/generic_server.svg;" vertex="1" parent="1">
          <mxGeometry x="678" y="435.2" width="84" height="150" as="geometry" />
        </mxCell>
        <mxCell id="Asr2E2KB3ToAg5dMWEB5-6" value="&lt;font style=&quot;font-size: 20px;&quot;&gt;Name: Iskra&lt;/font&gt;&lt;div&gt;&lt;font style=&quot;font-size: 20px;&quot;&gt;OS: ESXi&lt;/font&gt;&lt;/div&gt;&lt;div&gt;&lt;font style=&quot;font-size: 20px;&quot;&gt;IP: 10.0.0.100&lt;/font&gt;&lt;/div&gt;" style="text;html=1;align=center;verticalAlign=middle;whiteSpace=wrap;rounded=0;fontSize=13;" vertex="1" parent="1">
          <mxGeometry x="277.5" y="610" width="205" height="54.8" as="geometry" />
        </mxCell>
        <mxCell id="Asr2E2KB3ToAg5dMWEB5-7" value="&lt;font style=&quot;font-size: 20px;&quot;&gt;Name: Metroflex&lt;/font&gt;&lt;div&gt;&lt;font style=&quot;font-size: 20px;&quot;&gt;OS: Proxmox&lt;/font&gt;&lt;/div&gt;&lt;div&gt;&lt;font style=&quot;font-size: 20px;&quot;&gt;IP: 10.0.0.15&lt;/font&gt;&lt;/div&gt;" style="text;html=1;align=center;verticalAlign=middle;whiteSpace=wrap;rounded=0;" vertex="1" parent="1">
          <mxGeometry x="638.5" y="590" width="163" height="94.8" as="geometry" />
        </mxCell>
        <mxCell id="Asr2E2KB3ToAg5dMWEB5-8" value="VMs" style="swimlane;fontStyle=0;childLayout=stackLayout;horizontal=1;startSize=30;horizontalStack=0;resizeParent=1;resizeParentMax=0;resizeLast=0;collapsible=1;marginBottom=0;whiteSpace=wrap;html=1;fontSize=22;" vertex="1" parent="1">
          <mxGeometry x="602.5" y="684.8" width="235" height="110" as="geometry" />
        </mxCell>
        <mxCell id="Asr2E2KB3ToAg5dMWEB5-9" value="&lt;font style=&quot;font-size: 22px;&quot;&gt;DC2 (Redundancy)&lt;/font&gt;&lt;div&gt;&lt;span style=&quot;font-size: 22px;&quot;&gt;dc2.ad.d.com.hr&lt;/span&gt;&lt;/div&gt;" style="text;strokeColor=none;fillColor=none;align=left;verticalAlign=middle;spacingLeft=4;spacingRight=4;overflow=hidden;points=[[0,0.5],[1,0.5]];portConstraint=eastwest;rotatable=0;whiteSpace=wrap;html=1;" vertex="1" parent="Asr2E2KB3ToAg5dMWEB5-8">
          <mxGeometry y="30" width="235" height="80" as="geometry" />
        </mxCell>
        <mxCell id="Asr2E2KB3ToAg5dMWEB5-16" value="VMs" style="swimlane;fontStyle=0;childLayout=stackLayout;horizontal=1;startSize=30;horizontalStack=0;resizeParent=1;resizeParentMax=0;resizeLast=0;collapsible=1;marginBottom=0;whiteSpace=wrap;html=1;fontSize=22;" vertex="1" parent="1">
          <mxGeometry x="210" y="684.8" width="340" height="130" as="geometry" />
        </mxCell>
        <mxCell id="Asr2E2KB3ToAg5dMWEB5-17" value="D1 (Master) -&amp;nbsp;&lt;span style=&quot;background-color: initial;&quot;&gt;d1.ad.d.com.hr&lt;/span&gt;" style="text;strokeColor=default;fillColor=none;align=left;verticalAlign=middle;spacingLeft=4;spacingRight=4;overflow=hidden;points=[[0,0.5],[1,0.5]];portConstraint=eastwest;rotatable=0;whiteSpace=wrap;html=1;fontSize=22;" vertex="1" parent="Asr2E2KB3ToAg5dMWEB5-16">
          <mxGeometry y="30" width="340" height="40" as="geometry" />
        </mxCell>
        <mxCell id="Asr2E2KB3ToAg5dMWEB5-18" value="RHEL (Keycloak)" style="text;strokeColor=default;fillColor=none;align=left;verticalAlign=middle;spacingLeft=4;spacingRight=4;overflow=hidden;points=[[0,0.5],[1,0.5]];portConstraint=eastwest;rotatable=0;whiteSpace=wrap;html=1;fontSize=22;" vertex="1" parent="Asr2E2KB3ToAg5dMWEB5-16">
          <mxGeometry y="70" width="340" height="30" as="geometry" />
        </mxCell>
        <mxCell id="Asr2E2KB3ToAg5dMWEB5-19" value="NixOS (NGINX)" style="text;strokeColor=default;fillColor=none;align=left;verticalAlign=middle;spacingLeft=4;spacingRight=4;overflow=hidden;points=[[0,0.5],[1,0.5]];portConstraint=eastwest;rotatable=0;whiteSpace=wrap;html=1;fontSize=22;" vertex="1" parent="Asr2E2KB3ToAg5dMWEB5-16">
          <mxGeometry y="100" width="340" height="30" as="geometry" />
        </mxCell>
        <mxCell id="Asr2E2KB3ToAg5dMWEB5-21" style="rounded=0;orthogonalLoop=1;jettySize=auto;html=1;shape=link;entryX=-0.002;entryY=0.252;entryDx=0;entryDy=0;entryPerimeter=0;exitX=1;exitY=0.5;exitDx=0;exitDy=0;" edge="1" parent="1" source="Asr2E2KB3ToAg5dMWEB5-17" target="Asr2E2KB3ToAg5dMWEB5-9">
          <mxGeometry relative="1" as="geometry" />
        </mxCell>
        <mxCell id="Asr2E2KB3ToAg5dMWEB5-33" style="edgeStyle=orthogonalEdgeStyle;rounded=0;orthogonalLoop=1;jettySize=auto;html=1;shape=link;strokeWidth=5;" edge="1" parent="1" source="Asr2E2KB3ToAg5dMWEB5-23" target="Asr2E2KB3ToAg5dMWEB5-32">
          <mxGeometry relative="1" as="geometry" />
        </mxCell>
        <mxCell id="Asr2E2KB3ToAg5dMWEB5-23" value="" style="image;aspect=fixed;html=1;points=[];align=center;fontSize=12;image=img/lib/azure2/networking/Virtual_Router.svg;" vertex="1" parent="1">
          <mxGeometry x="470" y="950" width="80" height="80" as="geometry" />
        </mxCell>
        <mxCell id="Asr2E2KB3ToAg5dMWEB5-24" value="&lt;font style=&quot;font-size: 20px;&quot;&gt;Name: Mikrotik&lt;/font&gt;&lt;div&gt;&lt;font style=&quot;font-size: 20px;&quot;&gt;OS: RouterOS&lt;/font&gt;&lt;/div&gt;&lt;div&gt;&lt;font style=&quot;font-size: 20px;&quot;&gt;IP: 10.0.0.1&lt;/font&gt;&lt;/div&gt;" style="text;html=1;align=center;verticalAlign=middle;whiteSpace=wrap;rounded=0;" vertex="1" parent="1">
          <mxGeometry x="423.5" y="1050" width="173" height="54.8" as="geometry" />
        </mxCell>
        <mxCell id="Asr2E2KB3ToAg5dMWEB5-25" style="edgeStyle=orthogonalEdgeStyle;rounded=0;orthogonalLoop=1;jettySize=auto;html=1;strokeWidth=5;" edge="1" parent="1" source="Asr2E2KB3ToAg5dMWEB5-19" target="Asr2E2KB3ToAg5dMWEB5-23">
          <mxGeometry relative="1" as="geometry" />
        </mxCell>
        <mxCell id="Asr2E2KB3ToAg5dMWEB5-28" value="Hostname Access: auth.d.com.hr" style="text;html=1;align=center;verticalAlign=middle;whiteSpace=wrap;rounded=0;fontSize=22;" vertex="1" parent="1">
          <mxGeometry x="610" y="948.5" width="780" height="40" as="geometry" />
        </mxCell>
        <mxCell id="Asr2E2KB3ToAg5dMWEB5-29" value="&lt;font style=&quot;font-size: 17px;&quot;&gt;NAT Rule&lt;/font&gt;&lt;div&gt;&lt;font style=&quot;font-size: 17px;&quot;&gt;&lt;font style=&quot;&quot;&gt;for port&amp;nbsp;&lt;/font&gt;&lt;span style=&quot;background-color: initial;&quot;&gt;forwarding&lt;/span&gt;&lt;/font&gt;&lt;/div&gt;" style="text;strokeColor=none;fillColor=none;html=1;fontSize=24;fontStyle=1;verticalAlign=middle;align=center;" vertex="1" parent="1">
          <mxGeometry x="330" y="890" width="177" height="60" as="geometry" />
        </mxCell>
        <mxCell id="Asr2E2KB3ToAg5dMWEB5-36" style="edgeStyle=orthogonalEdgeStyle;rounded=0;orthogonalLoop=1;jettySize=auto;html=1;shape=link;strokeWidth=5;" edge="1" parent="1" source="Asr2E2KB3ToAg5dMWEB5-32" target="Asr2E2KB3ToAg5dMWEB5-1">
          <mxGeometry relative="1" as="geometry" />
        </mxCell>
        <mxCell id="Asr2E2KB3ToAg5dMWEB5-32" value="" style="image;aspect=fixed;html=1;points=[];align=center;fontSize=12;image=img/lib/azure2/networking/Virtual_Router.svg;" vertex="1" parent="1">
          <mxGeometry x="653" y="948.5" width="83" height="83" as="geometry" />
        </mxCell>
        <mxCell id="Asr2E2KB3ToAg5dMWEB5-34" value="&lt;font style=&quot;font-size: 20px;&quot;&gt;ISP Router&lt;/font&gt;&lt;div&gt;&lt;font style=&quot;font-size: 20px;&quot;&gt;(Bridged)&lt;/font&gt;&lt;/div&gt;" style="text;html=1;align=center;verticalAlign=middle;whiteSpace=wrap;rounded=0;fontSize=12;" vertex="1" parent="1">
          <mxGeometry x="630.5" y="1040" width="128" height="50" as="geometry" />
        </mxCell>
      </root>
    </mxGraphModel>
  </diagram>
</mxfile>
